<!-- Generator: Adobe Illustrator 22.1.0, SVG Export Plug-In  -->
<svg
  version="1.1"
  xmlns="http://www.w3.org/2000/svg"
  xmlns:xlink="http://www.w3.org/1999/xlink"
  xmlns:a="http://ns.adobe.com/AdobeSVGViewerExtensions/3.0/"
  x="0px"
  y="0px"
  width="576.116px"
  height="464.505px"
  viewBox="0 0 576.116 464.505"
  style="overflow:scroll;enable-background:new 0 0 576.116 464.505;"
  xml:space="preserve"
>
  <style type="text/css">
    .st0 {
      fill: #de0a1d;
    }
    .st1 {
      fill: #1f264a;
    }
    .st2 {
      fill: #222c3b;
    }
  </style>
  <defs></defs>
  <path
    class="st0"
    d="M172.758,331.164c0.539-35.259-32.68-51.33-32.68-51.33s30.222-6.716,32.141-47.012
	c1.112-23.355-10.452-41.558-20.027-50.492c-8.996-8.394-21.349-11.632-40.044-12.589C81.713,168.184,0,170.1,0,170.1v221.989
	h65.481l-0.72-85.03c0,0,0,0,18.469-0.12s17.03,11.753,17.03,11.753v28.783l0.48,44.614h72.024
	C172.764,392.088,172.218,366.424,172.758,331.164z M78.704,241.894c-5.921,0.367-13.462,0.343-13.462,0.343v-36.938
	c0,0,13.778-0.375,19.383,0.771c5.427,1.109,14.047,7.199,13.717,18.118C97.922,238.099,85.749,241.457,78.704,241.894z"
  />
  <circle class="st0" cx="221.201" cy="258.415" r="24.046" />
  <path
    class="st0"
    d="M231.959,336.882l40.041,53.768l53.679-0.222c0,0-35.52-51.747-63.414-83.155
	c-5.527-6.223-17.018-21.264-41.064-19.523c-35.073,2.54-43.884,35.351-42.636,58.223c0.909,16.656,12.712,48.292,48.165,48.292
	c20.088,0,28.479-10.811,28.479-10.811l-24.705-34.3c0,0-2.558,2.838-8.17,1.512c-8.851-2.092-8.252-14.685-1.947-17.09
	c5.636-2.149,9.792,1.034,11.712,3.495"
  />
  <path
    class="st0"
    d="M470.442,232.823c3.512,11.301,2.291,8.621,5.437,27.9l-72.837-0.08c0,0-0.107-25.823-0.32-33.657
	c-0.539-19.826-21.349-18.367-21.349-18.367c-19.168,0.595-21.888,18.036-22.225,25.75c-0.662,15.164,0.329,77.606,1.119,103.432
	c0.24,7.835,8.964,16.83,23.545,16.156c13.153-0.608,19.23-7.921,19.27-16.682c0.078-16.753-0.043-25.77-0.043-25.77l71.24-0.328
	c0,0-3.313,21.314-15.591,40.296c-6.903,10.673-16.239,20.792-28.143,28.063c-26.704,16.31-57.034,13.908-71.918,11.233
	c-18.909-3.398-49.002-23.898-64.562-53.928c-15.991-30.862-17.829-77.994-0.64-111.614c17.464-34.157,48.531-47.652,48.531-47.652
	s17.829-8.69,39.497-8.617C409.518,169.26,455.202,183.782,470.442,232.823z"
  />
  <rect y="66.521" class="st1" width="478.757" height="60.124" />
  <rect class="st1" width="478.757" height="58.206" />
  <rect x="542.08" y="66.521" class="st1" width="34.036" height="60.124" />
  <rect x="542.08" class="st1" width="34.036" height="58.206" />
</svg>
