<!-- Generator: Adobe Illustrator 22.1.0, SVG Export Plug-In  -->
<svg version="1.1"
	 xmlns="http://www.w3.org/2000/svg" xmlns:xlink="http://www.w3.org/1999/xlink" xmlns:a="http://ns.adobe.com/AdobeSVGViewerExtensions/3.0/"
	 x="0px" y="0px" width="576.116px" height="464.505px" viewBox="0 0 576.116 464.505"
	 style="overflow:scroll;enable-background:new 0 0 576.116 464.505;" xml:space="preserve">
<style type="text/css">
	.st0{fill:#DE0A1D;}
	.st1{fill:#1F264A;}
	.st2{fill:#222C3B;}
</style>
<defs>
</defs>
<path class="st0" d="M172.758,331.164c0.539-35.259-32.68-51.33-32.68-51.33s30.222-6.716,32.141-47.012
	c1.112-23.355-10.452-41.558-20.027-50.492c-8.996-8.394-21.349-11.632-40.044-12.589C81.713,168.184,0,170.1,0,170.1v221.989
	h65.481l-0.72-85.03c0,0,0,0,18.469-0.12s17.03,11.753,17.03,11.753v28.783l0.48,44.614h72.024
	C172.764,392.088,172.218,366.424,172.758,331.164z M78.704,241.894c-5.921,0.367-13.462,0.343-13.462,0.343v-36.938
	c0,0,13.778-0.375,19.383,0.771c5.427,1.109,14.047,7.199,13.717,18.118C97.922,238.099,85.749,241.457,78.704,241.894z"/>
<circle class="st0" cx="221.201" cy="258.415" r="24.046"/>
<path class="st0" d="M231.959,336.882l40.041,53.768l53.679-0.222c0,0-35.52-51.747-63.414-83.155
	c-5.527-6.223-17.018-21.264-41.064-19.523c-35.073,2.54-43.884,35.351-42.636,58.223c0.909,16.656,12.712,48.292,48.165,48.292
	c20.088,0,28.479-10.811,28.479-10.811l-24.705-34.3c0,0-2.558,2.838-8.17,1.512c-8.851-2.092-8.252-14.685-1.947-17.09
	c5.636-2.149,9.792,1.034,11.712,3.495"/>
<path class="st0" d="M470.442,232.823c3.512,11.301,2.291,8.621,5.437,27.9l-72.837-0.08c0,0-0.107-25.823-0.32-33.657
	c-0.539-19.826-21.349-18.367-21.349-18.367c-19.168,0.595-21.888,18.036-22.225,25.75c-0.662,15.164,0.329,77.606,1.119,103.432
	c0.24,7.835,8.964,16.83,23.545,16.156c13.153-0.608,19.23-7.921,19.27-16.682c0.078-16.753-0.043-25.77-0.043-25.77l71.24-0.328
	c0,0-3.313,21.314-15.591,40.296c-6.903,10.673-16.239,20.792-28.143,28.063c-26.704,16.31-57.034,13.908-71.918,11.233
	c-18.909-3.398-49.002-23.898-64.562-53.928c-15.991-30.862-17.829-77.994-0.64-111.614c17.464-34.157,48.531-47.652,48.531-47.652
	s17.829-8.69,39.497-8.617C409.518,169.26,455.202,183.782,470.442,232.823z"/>
<rect y="66.521" class="st1" width="478.757" height="60.124"/>
<rect class="st1" width="478.757" height="58.206"/>
<rect x="542.08" y="66.521" class="st1" width="34.036" height="60.124"/>
<rect x="542.08" class="st1" width="34.036" height="58.206"/>
<g>
	<g>
		<path class="st2" d="M2.099,463.98v-35.81h10.809c0.944,0,1.932,0.223,2.964,0.669c1.032,0.446,1.897,1.028,2.597,1.745
			c1.504,1.522,2.256,3.472,2.256,5.85v3.673c0,0.823-0.184,1.735-0.551,2.742s-0.849,1.902-1.443,2.689
			c-0.962,1.259-2.256,2.125-3.883,2.597l6.401,15.846h-5.64l-6.218-15.846H7.214v15.846H2.099z M7.214,443.517h4.748
			c0.909,0,1.556-0.114,1.941-0.341c1.137-0.665,1.705-1.688,1.705-3.069v-3.673c0-0.856-0.245-1.627-0.735-2.309
			c-0.7-0.909-1.566-1.355-2.597-1.338H7.214V443.517z"/>
		<path class="st2" d="M33.784,463.98v-35.81h16.895v4.617H38.9v10.704h7.792v4.617H38.9v11.255h11.779v4.617H33.784z"/>
		<path class="st2" d="M63.711,463.98v-35.81h10.415c2.483-0.017,4.495,0.813,6.034,2.492c1.312,1.505,1.968,3.429,1.968,5.772
			v3.725c0,0.98-0.21,1.981-0.63,3.004c-0.42,1.023-0.98,1.885-1.679,2.584c-1.033,1.049-2.387,1.784-4.066,2.204
			c-0.665,0.157-1.285,0.236-1.863,0.236h-5.063v15.793H63.711z M68.827,443.57h4.565c1.137,0,2.046-0.358,2.728-1.076
			c0.594-0.647,0.892-1.426,0.892-2.335v-3.725c0-0.926-0.245-1.713-0.735-2.361c-0.63-0.856-1.557-1.285-2.781-1.285h-4.67V443.57z
			"/>
		<path class="st2" d="M94.663,463.98v-35.81h10.809c0.944,0,1.932,0.223,2.965,0.669c1.032,0.446,1.897,1.028,2.597,1.745
			c1.504,1.522,2.256,3.472,2.256,5.85v3.673c0,0.823-0.184,1.735-0.551,2.742c-0.367,1.006-0.849,1.902-1.443,2.689
			c-0.962,1.259-2.256,2.125-3.883,2.597l6.401,15.846h-5.64l-6.218-15.846h-2.177v15.846H94.663z M99.778,443.517h4.748
			c0.909,0,1.556-0.114,1.941-0.341c1.137-0.665,1.705-1.688,1.705-3.069v-3.673c0-0.856-0.245-1.627-0.735-2.309
			c-0.7-0.909-1.566-1.355-2.597-1.338h-5.063V443.517z"/>
		<path class="st2" d="M126.348,463.98v-35.81h16.895v4.617h-11.779v10.704h7.792v4.617h-7.792v11.255h11.779v4.617H126.348z"/>
		<path class="st2" d="M155.777,453.723h5.116v1.338c0,1.033,0.272,1.924,0.813,2.676c0.804,1.102,1.915,1.653,3.332,1.653
			c1.207,0,2.213-0.455,3.017-1.364c0.682-0.787,1.023-1.731,1.023-2.833c0-1.049-0.35-1.951-1.049-2.702l-9.444-10.205
			c-1.538-1.679-2.309-3.647-2.309-5.903c0-2.762,1.059-5.001,3.174-6.716c1.679-1.346,3.551-2.02,5.614-2.02
			c2.798,0,5.063,1.172,6.795,3.515c1.049,1.4,1.643,3.105,1.784,5.116v1.495h-4.958v-1.495c-0.052-0.892-0.358-1.627-0.918-2.204
			c-0.718-0.873-1.643-1.312-2.781-1.312c-1.066,0-1.977,0.429-2.728,1.285c-0.577,0.665-0.866,1.435-0.866,2.309
			c0,0.928,0.332,1.75,0.997,2.466l9.444,10.336c1.574,1.715,2.361,3.768,2.361,6.165c0,2.571-0.883,4.713-2.65,6.427
			c-1.906,1.836-4.066,2.755-6.48,2.755c-1.977,0-3.847-0.646-5.614-1.941c-2.449-1.784-3.673-4.259-3.673-7.424V453.723z"/>
		<path class="st2" d="M187.594,463.98v-35.81h16.895v4.617h-11.779v10.704h7.792v4.617h-7.792v11.255h11.779v4.617H187.594z"/>
		<path class="st2" d="M217.522,463.98v-35.81h5.535l8.264,23.454V428.17h4.617v35.81h-5.509l-8.29-22.85v22.85H217.522z"/>
		<path class="st2" d="M260.016,432.788v31.193H254.9v-31.193h-6.559v-4.617h18.417v4.617H260.016z"/>
		<path class="st2" d="M281.47,459.914l-0.892,4.066h-5.273l7.818-35.81h5.824l7.844,35.81h-5.326l-0.997-4.066H281.47z
			 M289.472,455.297l-3.515-16.37l-3.437,16.37H289.472z"/>
		<path class="st2" d="M321.944,455.192h5.168c0,1.347-0.184,2.492-0.551,3.437c-0.63,1.557-1.557,2.833-2.781,3.83
			c-1.643,1.364-3.637,2.046-5.981,2.046c-2.903,0-5.23-1.076-6.978-3.227c-1.417-1.731-2.125-3.761-2.125-6.086v-18.128
			c0-2.378,0.761-4.441,2.282-6.191c1.836-2.151,4.128-3.227,6.873-3.227c2.256,0,4.276,0.761,6.06,2.282
			c2.151,1.82,3.217,4.198,3.201,7.136h-5.168v-0.577c0-0.997-0.315-1.896-0.944-2.702c-0.804-1.031-1.846-1.548-3.122-1.548
			c-1.574,0-2.755,0.701-3.542,2.099c-0.35,0.648-0.525,1.364-0.525,2.151v19.177c0,1.085,0.315,2.003,0.944,2.755
			c0.823,0.98,1.853,1.469,3.096,1.469c0.823,0,1.565-0.227,2.23-0.682c0.665-0.455,1.164-1.066,1.495-1.836
			C321.804,456.845,321.927,456.119,321.944,455.192z"/>
		<path class="st2" d="M341.193,463.98v-35.81h5.116v35.81H341.193z"/>
		<path class="st2" d="M360.391,455.244V436.88c0-2.414,0.761-4.467,2.282-6.165c1.82-2.046,4.119-3.069,6.9-3.069
			c3.131,0,5.605,1.295,7.424,3.883c1.207,1.731,1.81,3.515,1.81,5.352v18.364c0,1.82-0.515,3.515-1.548,5.089
			c-1.836,2.781-4.424,4.171-7.765,4.171c-2.974,0-5.352-1.102-7.136-3.306C361.047,459.573,360.391,457.589,360.391,455.244z
			 M373.692,455.9v-19.545c0-1.136-0.403-2.099-1.207-2.886c-0.823-0.804-1.775-1.207-2.86-1.207c-1.522,0-2.702,0.648-3.542,1.941
			c-0.384,0.613-0.577,1.33-0.577,2.151V455.9c0,1.014,0.289,1.863,0.866,2.545c0.804,0.961,1.863,1.443,3.174,1.443
			c1.505,0,2.659-0.587,3.463-1.758C373.465,457.448,373.692,456.704,373.692,455.9z"/>
		<path class="st2" d="M392.89,463.98v-35.81h5.535l8.264,23.454V428.17h4.617v35.81h-5.509l-8.29-22.85v22.85H392.89z"/>
		<path class="st2" d="M425.887,463.98v-35.81h16.895v4.617h-11.779v10.704h7.792v4.617h-7.792v11.255h11.779v4.617H425.887z"/>
		<path class="st2" d="M455.317,453.723h5.116v1.338c0,1.033,0.272,1.924,0.813,2.676c0.804,1.102,1.915,1.653,3.332,1.653
			c1.207,0,2.213-0.455,3.017-1.364c0.682-0.787,1.023-1.731,1.023-2.833c0-1.049-0.35-1.951-1.049-2.702l-9.444-10.205
			c-1.538-1.679-2.309-3.647-2.309-5.903c0-2.762,1.059-5.001,3.174-6.716c1.679-1.346,3.551-2.02,5.614-2.02
			c2.798,0,5.063,1.172,6.795,3.515c1.049,1.4,1.643,3.105,1.784,5.116v1.495h-4.958v-1.495c-0.052-0.892-0.358-1.627-0.918-2.204
			c-0.718-0.873-1.643-1.312-2.781-1.312c-1.066,0-1.977,0.429-2.728,1.285c-0.577,0.665-0.866,1.435-0.866,2.309
			c0,0.928,0.332,1.75,0.997,2.466l9.444,10.336c1.574,1.715,2.361,3.768,2.361,6.165c0,2.571-0.883,4.713-2.65,6.427
			c-1.906,1.836-4.066,2.755-6.48,2.755c-1.977,0-3.847-0.646-5.614-1.941c-2.449-1.784-3.673-4.259-3.673-7.424V453.723z"/>
	</g>
</g>
<g>
	<g>
		<path class="st1" d="M513.923,450.308v12.566h-5.116v-12.566l-7.398-23.243h5.378l4.591,14.113l4.407-14.113h5.483
			L513.923,450.308z"/>
	</g>
</g>
<g>
	<g>
		<path class="st1" d="M522.355,397.059l0.026-5.548l1.451,0.007c1.12,0.005,2.089-0.287,2.907-0.869
			c1.199-0.868,1.802-2.069,1.809-3.606c0.006-1.309-0.483-2.405-1.464-3.279c-0.85-0.744-1.873-1.118-3.068-1.124
			c-1.138-0.005-2.118,0.368-2.936,1.125l-11.117,10.193c-1.829,1.66-3.967,2.485-6.414,2.473c-2.998-0.014-5.419-1.173-7.269-3.476
			c-1.453-1.828-2.173-3.864-2.163-6.1c0.014-3.037,1.296-5.486,3.847-7.352c1.524-1.131,3.376-1.769,5.558-1.909l1.622,0.008
			l-0.025,5.378l-1.622-0.008c-0.968,0.052-1.766,0.378-2.395,0.985c-0.953,0.772-1.431,1.774-1.437,3.01
			c-0.005,1.154,0.456,2.144,1.381,2.966c0.719,0.629,1.551,0.946,2.5,0.951c1.006,0.005,1.898-0.353,2.68-1.069l11.259-10.192
			c1.868-1.699,4.099-2.542,6.699-2.53c2.789,0.013,5.107,0.979,6.958,2.906c1.982,2.074,2.967,4.424,2.955,7.042
			c-0.01,2.142-0.721,4.168-2.134,6.08c-1.947,2.647-4.638,3.961-8.071,3.945L522.355,397.059z"/>
		<path class="st1" d="M533.642,362.601l-38.842-0.18l0.085-18.325l5.008,0.023l-0.059,12.776l11.61,0.054l0.039-8.451l5.008,0.023
			l-0.039,8.451l12.207,0.057l0.059-12.777l5.008,0.023L533.642,362.601z"/>
		<path class="st1" d="M533.792,330.14l-38.842-0.18l0.054-11.724c0.005-1.024,0.252-2.094,0.741-3.212
			c0.489-1.118,1.123-2.054,1.905-2.808c1.658-1.624,3.778-2.43,6.357-2.418l3.984,0.018c0.892,0.004,1.881,0.208,2.971,0.611
			c1.09,0.403,2.059,0.93,2.909,1.579c1.361,1.049,2.294,2.458,2.798,4.224l17.219-6.863l-0.028,6.118l-17.218,6.664l-0.011,2.362
			l17.187,0.08L533.792,330.14z M511.623,324.488l0.024-5.15c0.005-0.986-0.116-1.69-0.36-2.107
			c-0.716-1.237-1.823-1.858-3.321-1.865l-3.984-0.018c-0.929-0.004-1.765,0.258-2.508,0.785c-0.989,0.754-1.477,1.69-1.464,2.81
			l-0.025,5.492L511.623,324.488z"/>
		<path class="st1" d="M495.21,273.994l38.804,8.29l-0.032,6.858l-38.88,8.157l0.027-5.862l27.715-5.762l-27.66-5.99L495.21,273.994
			z"/>
		<path class="st1" d="M534.115,260.723l-38.842-0.18l0.026-5.549l38.842,0.18L534.115,260.723z"/>
		<path class="st1" d="M524.745,225.485l0.026-5.606c1.461,0.007,2.702,0.212,3.725,0.615c1.686,0.691,3.065,1.703,4.141,3.036
			c1.471,1.789,2.201,3.955,2.189,6.498c-0.015,3.148-1.193,5.667-3.535,7.553c-1.885,1.528-4.09,2.286-6.612,2.274l-19.663-0.091
			c-2.579-0.012-4.815-0.848-6.704-2.507c-2.324-2.003-3.479-4.494-3.465-7.472c0.011-2.447,0.847-4.634,2.506-6.562
			c1.984-2.324,4.569-3.469,7.756-3.436l-0.026,5.606l-0.626-0.003c-1.081-0.005-2.061,0.332-2.936,1.011
			c-1.124,0.867-1.688,1.994-1.695,3.378c-0.008,1.707,0.744,2.991,2.259,3.852c0.699,0.383,1.477,0.576,2.331,0.58l20.801,0.097
			c1.177,0.005,2.174-0.331,2.993-1.011c1.067-0.887,1.603-2.003,1.609-3.35c0.004-0.892-0.238-1.698-0.729-2.422
			c-0.491-0.724-1.151-1.268-1.984-1.631C526.537,225.646,525.751,225.508,524.745,225.485z"/>
		<path class="st1" d="M534.375,204.649l-38.842-0.18l0.026-5.549l38.842,0.18L534.375,204.649z"/>
		<path class="st1" d="M524.996,183.782l-19.919-0.092c-2.618-0.012-4.844-0.848-6.676-2.507c-2.21-1.984-3.309-4.483-3.295-7.499
			c0.016-3.396,1.433-6.073,4.249-8.033c1.884-1.3,3.822-1.946,5.814-1.936l19.919,0.092c1.974,0.009,3.81,0.577,5.513,1.704
			c3.007,2.006,4.502,4.82,4.485,8.444c-0.015,3.226-1.222,5.799-3.621,7.723C529.694,183.092,527.538,183.794,524.996,183.782z
			 M525.774,169.358l-21.199-0.098c-1.234-0.006-2.278,0.426-3.136,1.294c-0.876,0.888-1.318,1.919-1.323,3.096
			c-0.008,1.65,0.688,2.934,2.088,3.851c0.663,0.42,1.438,0.633,2.33,0.637l21.199,0.098c1.1,0.005,2.022-0.304,2.765-0.926
			c1.047-0.867,1.574-2.013,1.581-3.436c0.008-1.632-0.623-2.887-1.889-3.765C527.452,169.612,526.646,169.362,525.774,169.358z"/>
		<path class="st1" d="M523.506,149.065l0.026-5.549l1.451,0.007c1.12,0.005,2.089-0.285,2.906-0.869
			c1.199-0.866,1.802-2.069,1.81-3.606c0.006-1.309-0.483-2.403-1.465-3.279c-0.85-0.744-1.873-1.118-3.068-1.124
			c-1.138-0.005-2.118,0.37-2.936,1.125l-11.117,10.193c-1.829,1.66-3.967,2.486-6.414,2.474c-2.998-0.014-5.419-1.174-7.269-3.477
			c-1.453-1.828-2.173-3.862-2.163-6.1c0.014-3.035,1.296-5.486,3.847-7.352c1.524-1.131,3.376-1.767,5.558-1.909l1.622,0.008
			l-0.025,5.378l-1.622-0.008c-0.968,0.052-1.766,0.38-2.395,0.985c-0.953,0.774-1.431,1.776-1.437,3.01
			c-0.005,1.157,0.456,2.146,1.381,2.966c0.719,0.629,1.551,0.946,2.5,0.951c1.006,0.005,1.898-0.351,2.68-1.069l11.259-10.192
			c1.868-1.699,4.099-2.542,6.699-2.53c2.789,0.013,5.107,0.981,6.958,2.906c1.982,2.076,2.967,4.424,2.955,7.042
			c-0.01,2.144-0.721,4.17-2.134,6.08c-1.947,2.648-4.638,3.962-8.071,3.946L523.506,149.065z"/>
	</g>
</g>
</svg>